{
    "asset" : {
        "generator" : "Khronos glTF Blender I/O v1.5.17",
        "version" : "2.0"
    },
    "scene" : 0,
    "scenes" : [
        {
            "name" : "Scene",
            "nodes" : [
                0,
                1,
                2
            ]
        }
    ],
    "nodes" : [
        {
            "name" : "Light",
            "rotation" : [
                0.16907575726509094,
                0.7558803558349609,
                -0.27217137813568115,
                0.570947527885437
            ],
            "translation" : [
                4.076245307922363,
                5.903861999511719,
                -1.0054539442062378
            ]
        },
        {
            "name" : "Camera",
            "rotation" : [
                0.6704906821250916,
                0.27071961760520935,
                -0.28939691185951233,
                0.6272181272506714
            ],
            "translation" : [
                7.001543045043945,
                -2.397071361541748,
                6.588947772979736
            ]
        },
        {
            "mesh" : 0,
            "name" : "imagetostl_mesh",
            "rotation" : [
                0.6532815098762512,
                0.27059805393218994,
                -0.27059805393218994,
                0.6532814502716064
            ],
            "scale" : [
                0.1502140611410141,
                0.1502140611410141,
                0.1502140611410141
            ],
            "translation" : [
                0.32611578702926636,
                0.009575843811035156,
                0.5775040984153748
            ]
        }
    ],
    "materials" : [
        {
            "doubleSided" : true,
            "name" : "mat0",
            "pbrMetallicRoughness" : {
                "baseColorFactor" : [
                    0.772549033164978,
                    0.772549033164978,
                    0.772549033164978,
                    1
                ],
                "metallicFactor" : 0,
                "roughnessFactor" : 0.4000000059604645
            }
        },
        {
            "doubleSided" : true,
            "name" : "mat1",
            "pbrMetallicRoughness" : {
                "baseColorFactor" : [
                    0,
                    0,
                    0,
                    1
                ],
                "metallicFactor" : 0,
                "roughnessFactor" : 0.4000000059604645
            }
        }
    ],
    "meshes" : [
        {
            "name" : "imagetostl_mesh",
            "primitives" : [
                {
                    "attributes" : {
                        "POSITION" : 0,
                        "NORMAL" : 1
                    },
                    "indices" : 2,
                    "material" : 0
                },
                {
                    "attributes" : {
                        "POSITION" : 3,
                        "NORMAL" : 4
                    },
                    "indices" : 5,
                    "material" : 1
                }
            ]
        }
    ],
    "accessors" : [
        {
            "bufferView" : 0,
            "componentType" : 5126,
            "count" : 5883,
            "max" : [
                45,
                5,
                7.283821105957031
            ],
            "min" : [
                -42.457977294921875,
                -5,
                -23.752685546875
            ],
            "type" : "VEC3"
        },
        {
            "bufferView" : 1,
            "componentType" : 5126,
            "count" : 5883,
            "type" : "VEC3"
        },
        {
            "bufferView" : 2,
            "componentType" : 5123,
            "count" : 9276,
            "type" : "SCALAR"
        },
        {
            "bufferView" : 3,
            "componentType" : 5126,
            "count" : 8336,
            "max" : [
                48.568641662597656,
                5,
                9.228191375732422
            ],
            "min" : [
                -46.783897399902344,
                -5,
                -26.983562469482422
            ],
            "type" : "VEC3"
        },
        {
            "bufferView" : 4,
            "componentType" : 5126,
            "count" : 8336,
            "type" : "VEC3"
        },
        {
            "bufferView" : 5,
            "componentType" : 5123,
            "count" : 13524,
            "type" : "SCALAR"
        }
    ],
    "bufferViews" : [
        {
            "buffer" : 0,
            "byteLength" : 70596,
            "byteOffset" : 0
        },
        {
            "buffer" : 0,
            "byteLength" : 70596,
            "byteOffset" : 70596
        },
        {
            "buffer" : 0,
            "byteLength" : 18552,
            "byteOffset" : 141192
        },
        {
            "buffer" : 0,
            "byteLength" : 100032,
            "byteOffset" : 159744
        },
        {
            "buffer" : 0,
            "byteLength" : 100032,
            "byteOffset" : 259776
        },
        {
            "buffer" : 0,
            "byteLength" : 27048,
            "byteOffset" : 359808
        }
    ],
    "buffers" : [
        {
            "byteLength" : 386856,
            "uri" : "data:application/octet-stream;base64,"
        }
    ]
}
