{
    "asset" : {
        "generator" : "Khronos glTF Blender I/O v1.5.17",
        "version" : "2.0"
    },
    "scene" : 0,
    "scenes" : [
        {
            "name" : "Scene",
            "nodes" : [
                0,
                1,
                2
            ]
        }
    ],
    "nodes" : [
        {
            "name" : "Light",
            "rotation" : [
                0.16907575726509094,
                0.7558803558349609,
                -0.27217137813568115,
                0.570947527885437
            ],
            "translation" : [
                4.076245307922363,
                5.903861999511719,
                -1.0054539442062378
            ]
        },
        {
            "name" : "Camera",
            "rotation" : [
                0.483536034822464,
                0.33687159419059753,
                -0.20870360732078552,
                0.7804827094078064
            ],
            "translation" : [
                7.358891487121582,
                4.958309173583984,
                6.925790786743164
            ]
        },
        {
            "mesh" : 0,
            "name" : "imagetostl_mesh",
            "rotation" : [
                0.7071068286895752,
                0,
                0,
                0.7071068286895752
            ],
            "scale" : [
                0.017461275681853294,
                0.017461275681853294,
                0.017461275681853294
            ]
        }
    ],
    "materials" : [
        {
            "doubleSided" : true,
            "name" : "mat0",
            "pbrMetallicRoughness" : {
                "baseColorFactor" : [
                    0.6705883145332336,
                    0.4288657605648041,
                    0,
                    1
                ],
                "metallicFactor" : 0,
                "roughnessFactor" : 0.4000000059604645
            }
        },
        {
            "doubleSided" : true,
            "name" : "mat1",
            "pbrMetallicRoughness" : {
                "baseColorFactor" : [
                    0.7342308163642883,
                    0.8352943062782288,
                    0.037339676171541214,
                    1
                ],
                "metallicFactor" : 0,
                "roughnessFactor" : 0.4000000059604645
            }
        },
        {
            "doubleSided" : true,
            "name" : "mat2",
            "pbrMetallicRoughness" : {
                "baseColorFactor" : [
                    0,
                    0,
                    0,
                    1
                ],
                "metallicFactor" : 0,
                "roughnessFactor" : 0.4000000059604645
            }
        },
        {
            "doubleSided" : true,
            "name" : "mat3",
            "pbrMetallicRoughness" : {
                "baseColorFactor" : [
                    0.5372551083564758,
                    0.17998306453227997,
                    0,
                    1
                ],
                "metallicFactor" : 0,
                "roughnessFactor" : 0.4000000059604645
            }
        }
    ],
    "meshes" : [
        {
            "name" : "imagetostl_mesh",
            "primitives" : [
                {
                    "attributes" : {
                        "POSITION" : 0,
                        "NORMAL" : 1
                    },
                    "indices" : 2,
                    "material" : 0
                },
                {
                    "attributes" : {
                        "POSITION" : 3,
                        "NORMAL" : 4
                    },
                    "indices" : 5,
                    "material" : 1
                },
                {
                    "attributes" : {
                        "POSITION" : 6,
                        "NORMAL" : 7
                    },
                    "indices" : 8,
                    "material" : 2
                },
                {
                    "attributes" : {
                        "POSITION" : 9,
                        "NORMAL" : 10
                    },
                    "indices" : 11,
                    "material" : 3
                }
            ]
        }
    ],
    "accessors" : [
        {
            "bufferView" : 0,
            "componentType" : 5126,
            "count" : 5423,
            "max" : [
                38,
                5,
                29.99994659423828
            ],
            "min" : [
                -40.68954086303711,
                -5,
                -24.767173767089844
            ],
            "type" : "VEC3"
        },
        {
            "bufferView" : 1,
            "componentType" : 5126,
            "count" : 5423,
            "type" : "VEC3"
        },
        {
            "bufferView" : 2,
            "componentType" : 5123,
            "count" : 8364,
            "type" : "SCALAR"
        },
        {
            "bufferView" : 3,
            "componentType" : 5126,
            "count" : 5945,
            "max" : [
                37.84723663330078,
                5,
                27.99997329711914
            ],
            "min" : [
                -40.750328063964844,
                -5,
                -28.776187896728516
            ],
            "type" : "VEC3"
        },
        {
            "bufferView" : 4,
            "componentType" : 5126,
            "count" : 5945,
            "type" : "VEC3"
        },
        {
            "bufferView" : 5,
            "componentType" : 5123,
            "count" : 9252,
            "type" : "SCALAR"
        },
        {
            "bufferView" : 6,
            "componentType" : 5126,
            "count" : 9522,
            "max" : [
                41.94391632080078,
                5,
                32
            ],
            "min" : [
                -41.5948486328125,
                -5,
                -29.988998413085938
            ],
            "type" : "VEC3"
        },
        {
            "bufferView" : 7,
            "componentType" : 5126,
            "count" : 9522,
            "type" : "VEC3"
        },
        {
            "bufferView" : 8,
            "componentType" : 5123,
            "count" : 16128,
            "type" : "SCALAR"
        },
        {
            "bufferView" : 9,
            "componentType" : 5126,
            "count" : 3812,
            "max" : [
                40.566673278808594,
                5,
                24.409391403198242
            ],
            "min" : [
                -35.0196647644043,
                -5,
                -16.210559844970703
            ],
            "type" : "VEC3"
        },
        {
            "bufferView" : 10,
            "componentType" : 5126,
            "count" : 3812,
            "type" : "VEC3"
        },
        {
            "bufferView" : 11,
            "componentType" : 5123,
            "count" : 6120,
            "type" : "SCALAR"
        }
    ],
    "bufferViews" : [
        {
            "buffer" : 0,
            "byteLength" : 65076,
            "byteOffset" : 0
        },
        {
            "buffer" : 0,
            "byteLength" : 65076,
            "byteOffset" : 65076
        },
        {
            "buffer" : 0,
            "byteLength" : 16728,
            "byteOffset" : 130152
        },
        {
            "buffer" : 0,
            "byteLength" : 71340,
            "byteOffset" : 146880
        },
        {
            "buffer" : 0,
            "byteLength" : 71340,
            "byteOffset" : 218220
        },
        {
            "buffer" : 0,
            "byteLength" : 18504,
            "byteOffset" : 289560
        },
        {
            "buffer" : 0,
            "byteLength" : 114264,
            "byteOffset" : 308064
        },
        {
            "buffer" : 0,
            "byteLength" : 114264,
            "byteOffset" : 422328
        },
        {
            "buffer" : 0,
            "byteLength" : 32256,
            "byteOffset" : 536592
        },
        {
            "buffer" : 0,
            "byteLength" : 45744,
            "byteOffset" : 568848
        },
        {
            "buffer" : 0,
            "byteLength" : 45744,
            "byteOffset" : 614592
        },
        {
            "buffer" : 0,
            "byteLength" : 12240,
            "byteOffset" : 660336
        }
    ],
    "buffers" : [
        {
            "byteLength" : 672576,
            "uri" : "data:application/octet-stream;base64,"
        }
    ]
}
